<svg display="block" role="presentation" viewBox="0 0 448 41" xmlns="http://www.w3.org/2000/svg"><path d="M 0 31.951 L 0 4.69 L 20.766 4.69 L 20.766 31.951 Z M 14.733 9.922 L 6.134 9.922 L 6.134 26.68 L 14.733 26.68 Z M 32.663 21.027 L 32.663 40.491 L 26.579 40.491 L 26.579 0.1 L 32.663 0.1 L 32.663 15.154 L 38.336 15.154 L 38.336 21.027 Z M 54.251 23.092 L 54.251 17.81 L 94.511 17.81 L 94.511 23.092 Z M 86.022 2.275 C 88.969 3.668 90.432 5.482 90.432 7.717 C 90.432 10.103 88.959 11.967 86.022 13.29 C 83.076 14.623 79.197 15.284 74.376 15.284 C 69.556 15.284 65.757 14.623 62.78 13.29 C 59.804 11.957 58.32 10.083 58.32 7.667 C 58.32 5.522 59.804 3.738 62.78 2.315 C 65.757 0.892 69.626 0.18 74.376 0.18 C 79.127 0.18 83.076 0.872 86.022 2.265 Z M 59.152 40.39 L 59.152 26.068 L 89.62 26.068 L 89.62 40.39 Z M 83.527 31.3 L 65.226 31.3 L 65.226 35.159 L 83.527 35.159 Z M 67.912 5.572 C 66.188 6.104 65.326 6.785 65.326 7.617 C 65.326 8.509 66.158 9.221 67.822 9.772 C 69.485 10.323 71.67 10.594 74.386 10.594 C 77.102 10.594 79.297 10.343 80.971 9.832 C 82.645 9.331 83.487 8.619 83.487 7.697 C 83.487 6.775 82.615 6.104 80.881 5.562 C 79.147 5.031 76.972 4.761 74.386 4.761 C 71.801 4.761 69.636 5.031 67.912 5.562 Z M 108.503 24.926 L 108.503 19.644 L 125.38 19.644 L 125.38 14.823 L 131.875 14.823 L 131.875 19.644 L 148.753 19.644 L 148.753 24.926 L 108.493 24.926 Z M 142.629 16.888 C 140.123 16.457 137.417 15.445 134.491 13.831 C 131.564 12.227 129.61 10.644 128.638 9.08 C 127.475 10.644 125.591 12.197 122.985 13.741 C 120.395 15.281 117.551 16.346 114.586 16.888 L 111.068 12.708 C 114.667 11.947 117.914 10.584 120.81 8.619 C 123.707 6.665 125.16 4.41 125.16 1.874 L 125.16 0 L 132.065 0 L 132.065 1.884 C 132.065 4.42 133.549 6.655 136.505 8.589 C 139.462 10.514 142.699 11.897 146.207 12.718 L 142.639 16.898 Z M 137.738 40.571 L 137.738 33.184 L 112.903 33.184 L 112.903 27.902 L 143.922 27.902 L 143.922 40.571 L 137.748 40.571 Z M 185.144 32.152 C 182.388 32.493 179.492 32.723 176.475 32.843 C 173.849 32.934 170.962 32.974 167.805 32.954 C 164.648 32.944 162.965 32.934 162.754 32.934 L 162.754 27.562 C 163.025 27.562 165.19 27.562 169.229 27.582 C 173.268 27.602 176.675 27.542 179.451 27.421 C 181.346 27.361 183.511 27.181 185.966 26.89 C 188.422 26.6 190.336 26.349 191.709 26.128 L 191.709 31.13 C 190.095 31.47 187.9 31.801 185.144 32.142 Z M 184.803 20.175 C 182.578 22.26 179.722 23.292 176.244 23.292 C 172.767 23.292 169.92 22.25 167.715 20.175 C 165.5 18.09 164.398 15.615 164.398 12.738 C 164.398 9.862 165.5 7.397 167.715 5.352 C 169.93 3.307 172.767 2.275 176.244 2.275 C 179.722 2.275 182.568 3.297 184.803 5.352 C 187.028 7.407 188.141 9.862 188.141 12.738 C 188.141 15.615 187.028 18.09 184.803 20.175 Z M 180.594 9 C 179.592 7.948 178.139 7.417 176.244 7.417 C 174.35 7.417 172.987 7.938 171.965 8.98 C 170.942 10.022 170.431 11.275 170.431 12.749 C 170.431 14.222 170.942 15.485 171.965 16.557 C 172.987 17.629 174.41 18.161 176.244 18.161 C 178.078 18.161 179.582 17.629 180.594 16.577 C 181.606 15.525 182.107 14.262 182.107 12.789 C 182.107 11.315 181.606 10.063 180.594 9 Z M 193.132 40.461 L 193.132 0.07 L 199.216 0.07 L 199.216 40.461 Z M 265.855 22.059 C 262.838 22.26 260.583 22.37 259.08 22.4 L 259.08 28.233 L 252.856 28.233 L 252.856 22.45 L 244.206 22.45 L 244.206 17.219 L 257.696 17.219 C 259.771 17.219 262.547 17.078 266.025 16.808 C 269.503 16.537 271.838 16.286 273.021 16.076 L 273.021 21.308 C 271.257 21.618 268.861 21.869 265.835 22.069 Z M 266.236 2.646 C 268.02 4.189 268.912 5.963 268.912 7.948 C 268.912 9.932 268 11.776 266.165 13.3 C 264.331 14.813 261.655 15.575 258.117 15.575 C 254.58 15.575 251.894 14.813 250.069 13.28 C 248.235 11.746 247.323 9.972 247.323 7.958 C 247.323 5.943 248.245 4.199 250.089 2.656 C 251.934 1.112 254.61 0.341 258.117 0.341 C 261.625 0.341 264.452 1.112 266.236 2.656 Z M 250.711 40.671 L 250.711 29.837 L 256.935 29.837 L 256.935 35.389 L 281.64 35.389 L 281.64 40.671 Z M 261.936 5.923 C 261.184 5.192 259.911 4.821 258.117 4.821 C 256.323 4.821 255.141 5.192 254.389 5.923 C 253.637 6.655 253.267 7.326 253.267 7.948 C 253.267 8.569 253.667 9.171 254.459 9.872 C 255.251 10.574 256.484 10.924 258.168 10.924 C 259.932 10.924 261.194 10.574 261.946 9.872 C 262.698 9.171 263.069 8.529 263.069 7.948 C 263.069 7.336 262.698 6.665 261.946 5.923 Z M 274.634 31.581 L 274.634 28.594 L 265.534 28.594 L 265.534 23.773 L 274.634 23.773 L 274.634 0.09 L 280.718 0.09 L 280.718 31.581 Z M 319.054 31.11 C 315.596 31.541 312.138 31.751 308.691 31.751 L 301.735 31.751 L 301.735 4.31 L 321.179 4.31 L 321.179 9.541 L 307.869 9.541 L 307.869 26.389 L 311.898 26.389 C 313.792 26.359 316.318 26.179 319.495 25.838 C 322.662 25.497 324.316 25.317 324.436 25.287 L 324.436 30.468 C 324.316 30.468 322.522 30.679 319.064 31.11 Z M 329.908 40.661 L 329.908 19.353 L 319.565 19.353 L 319.565 14.071 L 329.908 14.071 L 329.908 0.08 L 335.992 0.08 L 335.992 40.661 Z M 366.309 25.818 C 363.944 25.988 361.88 26.068 360.116 26.068 L 352.98 26.068 L 352.98 12.438 L 362.902 12.438 L 362.902 8.669 L 352.98 8.669 L 352.98 3.438 L 369.036 3.438 L 369.036 17.479 L 359.113 17.479 L 359.113 20.827 L 362.451 20.827 C 364.064 20.827 365.728 20.766 367.442 20.646 C 369.146 20.526 370.519 20.386 371.561 20.235 L 371.561 25.377 C 370.429 25.497 368.685 25.647 366.319 25.818 Z M 358.141 40.661 L 358.141 28.494 L 364.315 28.494 L 364.315 35.379 L 389.431 35.379 L 389.431 40.661 Z M 382.616 30.929 L 382.616 18.311 L 379.369 18.311 L 379.369 30.057 L 373.466 30.057 L 373.466 1.874 L 379.369 1.874 L 379.369 12.749 L 382.616 12.749 L 382.616 0.08 L 388.519 0.08 L 388.519 30.929 Z M 407.251 36.522 L 407.251 31.29 L 447.511 31.29 L 447.511 36.522 Z M 412.192 24.314 L 412.192 3.979 L 442.841 3.979 L 442.841 9.261 L 418.316 9.261 L 418.316 19.033 L 443.061 19.033 L 443.061 24.314 L 412.182 24.314 Z M 222.458 15.926 C 221.385 15.926 220.343 15.715 219.361 15.284 C 218.369 14.853 217.507 14.302 216.765 13.6 C 216.021 12.902 215.416 12.069 214.981 11.145 C 214.531 10.2 214.302 9.165 214.309 8.118 L 214.309 7.988 C 214.309 6.915 214.53 5.903 214.981 4.961 C 215.432 4.019 216.023 3.197 216.765 2.506 C 217.507 1.814 218.369 1.253 219.361 0.822 C 220.343 0.391 221.385 0.18 222.458 0.18 C 223.53 0.18 224.572 0.391 225.555 0.822 C 226.537 1.253 227.409 1.804 228.15 2.506 C 228.892 3.197 229.483 4.019 229.934 4.961 C 230.385 5.903 230.606 6.915 230.606 7.988 L 230.606 8.118 C 230.606 9.201 230.385 10.203 229.934 11.145 C 229.483 12.087 228.892 12.909 228.15 13.6 C 227.409 14.302 226.547 14.863 225.555 15.284 C 224.562 15.715 223.53 15.926 222.458 15.926 Z M 222.458 12.227 C 223.62 12.227 224.612 11.826 225.424 11.015 C 226.236 10.203 226.637 9.241 226.637 8.118 L 226.637 7.988 C 226.637 6.865 226.236 5.903 225.424 5.091 C 224.612 4.29 223.63 3.879 222.458 3.879 C 221.285 3.879 220.303 4.28 219.491 5.091 C 218.679 5.903 218.278 6.865 218.278 7.988 L 218.278 8.118 C 218.278 9.241 218.679 10.203 219.491 11.015 C 220.303 11.826 221.285 12.227 222.458 12.227 Z" fill="var(--token-349d8be3-88fc-4713-925f-145d9b4e12dc, rgb(0, 0, 0))" height="40.67098769867901px" id="WCLPUNogE" width="447.51113537980837px"/></svg>